{
	"asset":{
		"version":"2.0",
		"generator":"Created using the official Cinema 4D glTF Exporter 1.000x284978"
	},
	"scenes":[{
		"nodes":[0]
	}],
	"nodes":[{
		"name":"Default",
		"mesh":0
	}],
	"meshes":[{
		"name":"Default",
		"primitives":[{
			"attributes":{
				"POSITION":1,
				"NORMAL":2
			},
			"indices":0,
			"material":0
		}]
	}],
	"accessors":[{
		"bufferView":0,
		"type":"SCALAR",
		"max":[421],
		"componentType":5123,
		"count":888,
		"byteOffset":0,
		"min":[0]
	},
	{
		"bufferView":1,
		"type":"VEC3",
		"max":[2.0828049182891847,
		3.6392359733581545,
		4.2575201988220219],
		"componentType":5126,
		"count":422,
		"byteOffset":0,
		"min":[-2.0828049182891847,
		-5.172645092010498,
		-4.520748138427734]
	},
	{
		"bufferView":1,
		"type":"VEC3",
		"max":[0.9900830388069153,
		0.9999818801879883,
		0.9973161816596985],
		"componentType":5126,
		"count":422,
		"byteOffset":12,
		"min":[-0.996340274810791,
		-1.0,
		-0.9831476211547852]
	}],
	"bufferViews":[{
		"buffer":0,
		"byteOffset":0,
		"byteLength":1776,
		"target":34963
	},
	{
		"buffer":0,
		"byteOffset":1776,
		"byteLength":10128,
		"target":34962,
		"byteStride":24
	}],
	"buffers":[{
		"uri":"data:application/octet-stream;base64,",
		"byteLength":11904
	}],
	"materials":[{
		"pbrMetallicRoughness":{
			"baseColorFactor":[0.376,
			0.3830666666666666,
			0.8,
			1.0],
			"metallicFactor":0.0,
			"roughnessFactor":0.5
		},
		"emissiveFactor":[0.0,
		0.0,
		0.0],
		"alphaMode":"OPAQUE",
		"doubleSided":false,
		"name":"Mat"
	}]
}